<?xml version="1.0" encoding="utf-8"?>
<!-- Generator: Adobe Illustrator 21.0.0, SVG Export Plug-In . SVG Version: 6.00 Build 0)  -->
<svg version="1.1" id="Layer_1" xmlns="http://www.w3.org/2000/svg" xmlns:xlink="http://www.w3.org/1999/xlink" x="0px" y="0px"
	 viewBox="0 0 80 80" style="enable-background:new 0 0 80 80;" xml:space="preserve">
<style type="text/css">
	.st0{fill:#FFFFFF;}
</style>
<g>
	<path class="st0" d="M40,0c7.3,0,14,1.8,20.2,5.4c6,3.6,10.8,8.4,14.4,14.4C78.2,26,80,32.7,80,40c0,7.3-1.8,14-5.4,20.2
		c-3.6,6-8.4,10.8-14.4,14.4C54,78.2,47.3,80,40,80c-7.3,0-14-1.8-20.2-5.4C13.8,71,9,66.2,5.4,60.2C1.8,54,0,47.3,0,40
		c0-7.3,1.8-14,5.4-20.2C9,13.8,13.8,9,19.8,5.4C26,1.8,32.7,0,40,0z M21.5,8.4C16,11.6,11.6,16,8.4,21.5c-3.4,5.7-5,11.9-5,18.5
		c0,6.6,1.7,12.8,5,18.5c3.2,5.5,7.6,9.9,13.1,13.1c5.7,3.4,11.9,5,18.5,5c6.6,0,12.8-1.7,18.5-5c5.5-3.2,9.9-7.6,13.1-13.1
		c3.4-5.7,5-11.9,5-18.5c0-6.6-1.7-12.8-5-18.5C68.4,16,64,11.6,58.5,8.4c-5.7-3.4-11.9-5-18.5-5C33.4,3.4,27.2,5,21.5,8.4z
		 M29.2,58.7l30-17.3c0.5-0.4,0.8-0.9,0.8-1.4c0-0.6-0.3-1.1-0.8-1.4l-30-17.4c-0.6-0.3-1.2-0.3-1.7,0c-0.6,0.3-0.8,0.8-0.8,1.4
		v34.6c0,0.7,0.3,1.2,0.9,1.4c0.3,0.2,0.5,0.2,0.8,0.2C28.6,59,28.9,58.9,29.2,58.7z M55,40L30,54.4V25.6L55,40z"/>
</g>
</svg>
